<?xml version="1.0" standalone="no"?>
<!DOCTYPE svg PUBLIC "-//W3C//DTD SVG 20010904//EN"
 "http://www.w3.org/TR/2001/REC-SVG-20010904/DTD/svg10.dtd">
<svg version="1.0" xmlns="http://www.w3.org/2000/svg"
 width="920.000000pt" height="483.000000pt" viewBox="0 0 920.000000 483.000000"
 preserveAspectRatio="xMidYMid meet">

<g transform="translate(0.000000,483.000000) scale(0.100000,-0.100000)"
fill="#000000" stroke="none">
<path d="M4895 4808 c-121 -63 -294 -313 -349 -502 -30 -102 -57 -291 -63
-433 -5 -113 -1 -178 17 -328 l24 -188 -80 -70 c-153 -137 -370 -363 -446
-464 -205 -274 -288 -532 -259 -805 15 -134 41 -229 96 -346 80 -168 207 -331
331 -423 59 -43 168 -100 235 -123 76 -25 216 -39 322 -33 53 4 97 5 97 4 0
-1 12 -67 26 -147 34 -196 42 -402 19 -489 -46 -178 -156 -275 -309 -275 -69
-1 -146 17 -146 34 0 4 13 10 29 13 49 10 113 68 146 132 27 53 30 68 30 149
-1 80 -4 98 -30 150 -53 105 -148 164 -267 165 -88 1 -173 -41 -234 -116 -64
-78 -88 -149 -88 -263 -1 -87 2 -100 31 -160 62 -125 180 -218 338 -266 82
-25 260 -25 330 0 152 54 271 150 325 260 67 136 63 373 -15 832 -5 30 -3 32
47 54 150 64 281 198 351 356 45 102 61 187 60 319 0 137 -21 232 -73 336
-114 227 -276 344 -506 365 -50 5 -74 11 -74 20 0 7 -11 93 -25 192 l-24 179
82 84 c234 240 379 567 418 940 13 124 2 264 -33 434 -50 243 -112 371 -202
414 -53 26 -80 26 -131 -1z m142 -512 c27 -24 28 -27 27 -128 -1 -151 -41
-265 -151 -431 -48 -72 -211 -247 -230 -247 -6 0 -13 24 -16 53 -24 231 92
619 219 737 54 49 106 55 151 16z m-428 -1603 c7 -60 15 -124 18 -144 5 -36 5
-36 -63 -74 -80 -44 -207 -166 -249 -239 -104 -179 -112 -386 -22 -566 58
-117 197 -230 282 -230 31 0 75 24 75 40 0 5 -24 44 -53 87 -69 103 -78 124
-78 198 -1 79 14 129 57 188 31 42 109 106 118 96 2 -2 25 -168 50 -369 26
-201 49 -372 52 -381 6 -23 -22 -29 -132 -29 -191 0 -334 61 -480 205 -150
148 -199 278 -177 467 28 235 156 464 386 687 93 90 186 171 198 171 3 0 12
-48 18 -107z m373 -664 c85 -55 138 -152 138 -253 0 -120 -55 -294 -115 -363
l-33 -38 -6 25 c-8 36 -86 622 -86 649 0 20 4 22 28 16 15 -3 48 -20 74 -36z"/>
</g>
</svg>
