<?xml version="1.0" standalone="no"?>
<!DOCTYPE svg PUBLIC "-//W3C//DTD SVG 20010904//EN"
 "http://www.w3.org/TR/2001/REC-SVG-20010904/DTD/svg10.dtd">
<svg version="1.0" xmlns="http://www.w3.org/2000/svg"
 width="360.000000pt" height="360.000000pt" viewBox="0 0 360.000000 360.000000"
 preserveAspectRatio="xMidYMid meet">

<g transform="translate(0.000000,360.000000) scale(0.100000,-0.100000)"
fill="#000000" stroke="none">
<path d="M1802 2210 c3 -1224 1 -1380 -12 -1374 -86 36 -142 48 -240 48 -128
0 -199 -17 -326 -80 -233 -116 -373 -287 -382 -467 -4 -72 -1 -84 27 -142 63
-127 165 -185 327 -186 112 0 185 18 309 76 197 92 327 229 391 413 l24 69 2
1024 3 1024 30 -3 c97 -12 345 -145 448 -242 113 -106 204 -289 247 -500 18
-86 21 -127 17 -230 -6 -148 -33 -247 -151 -548 -40 -103 -71 -189 -69 -192
18 -20 138 219 202 405 23 66 56 174 74 240 30 113 32 130 31 290 0 155 -3
178 -27 259 -63 204 -168 368 -418 651 -281 318 -335 409 -373 630 -9 50 -16
118 -16 153 l0 62 -60 0 -60 0 2 -1380z"/>
</g>
</svg>
